<mxfile host="app.diagrams.net" modified="2021-06-08T23:47:15.671Z" agent="5.0 (Windows)" etag="L1MxpbAgi23BaadeXNOb" version="14.6.11" type="github">
  <diagram id="cAkSfmcRof5YzapApIng" name="Page-1">
    <mxGraphModel dx="1422" dy="819" grid="1" gridSize="10" guides="1" tooltips="1" connect="1" arrows="1" fold="1" page="1" pageScale="1" pageWidth="850" pageHeight="1100" math="0" shadow="0">
      <root>
        <mxCell id="0" />
        <mxCell id="1" parent="0" />
        <mxCell id="Wb6nElrMa-7b8kM3IpfW-1" value="" style="rounded=0;whiteSpace=wrap;html=1;" vertex="1" parent="1">
          <mxGeometry x="40" y="40" width="500" height="470" as="geometry" />
        </mxCell>
        <mxCell id="Wb6nElrMa-7b8kM3IpfW-2" value="Example page populated with cards" style="text;html=1;strokeColor=none;fillColor=none;align=center;verticalAlign=middle;whiteSpace=wrap;rounded=0;" vertex="1" parent="1">
          <mxGeometry x="550" y="30" width="100" height="30" as="geometry" />
        </mxCell>
        <mxCell id="Wb6nElrMa-7b8kM3IpfW-3" value="" style="rounded=0;whiteSpace=wrap;html=1;" vertex="1" parent="1">
          <mxGeometry x="80" y="60" width="110" height="120" as="geometry" />
        </mxCell>
        <mxCell id="Wb6nElrMa-7b8kM3IpfW-14" value="" style="shape=image;html=1;verticalAlign=top;verticalLabelPosition=bottom;labelBackgroundColor=#ffffff;imageAspect=0;aspect=fixed;image=https://cdn4.iconfinder.com/data/icons/wirecons-free-vector-icons/32/add-128.png" vertex="1" parent="1">
          <mxGeometry x="510" y="480" width="18" height="18" as="geometry" />
        </mxCell>
        <mxCell id="Wb6nElrMa-7b8kM3IpfW-15" value="" style="shape=image;html=1;verticalAlign=top;verticalLabelPosition=bottom;labelBackgroundColor=#ffffff;imageAspect=0;aspect=fixed;image=https://cdn4.iconfinder.com/data/icons/wirecons-free-vector-icons/32/menu-alt-128.png" vertex="1" parent="1">
          <mxGeometry x="50" y="50" width="18" height="18" as="geometry" />
        </mxCell>
        <mxCell id="Wb6nElrMa-7b8kM3IpfW-18" value="" style="rounded=0;whiteSpace=wrap;html=1;" vertex="1" parent="1">
          <mxGeometry x="90" y="68" width="40" height="42" as="geometry" />
        </mxCell>
        <mxCell id="Wb6nElrMa-7b8kM3IpfW-19" value="Img" style="text;html=1;strokeColor=none;fillColor=none;align=center;verticalAlign=middle;whiteSpace=wrap;rounded=0;" vertex="1" parent="1">
          <mxGeometry x="90" y="79" width="40" height="20" as="geometry" />
        </mxCell>
        <mxCell id="Wb6nElrMa-7b8kM3IpfW-20" value="Title" style="text;html=1;strokeColor=none;fillColor=none;align=center;verticalAlign=middle;whiteSpace=wrap;rounded=0;" vertex="1" parent="1">
          <mxGeometry x="140" y="70" width="40" height="20" as="geometry" />
        </mxCell>
        <mxCell id="Wb6nElrMa-7b8kM3IpfW-21" value="&lt;font style=&quot;font-size: 10px&quot;&gt;desc&lt;/font&gt;" style="text;html=1;strokeColor=none;fillColor=none;align=center;verticalAlign=middle;whiteSpace=wrap;rounded=0;" vertex="1" parent="1">
          <mxGeometry x="140" y="90" width="40" height="20" as="geometry" />
        </mxCell>
        <mxCell id="Wb6nElrMa-7b8kM3IpfW-22" value="Chapters" style="text;html=1;strokeColor=none;fillColor=none;align=center;verticalAlign=middle;whiteSpace=wrap;rounded=0;" vertex="1" parent="1">
          <mxGeometry x="90" y="120" width="40" height="20" as="geometry" />
        </mxCell>
        <mxCell id="Wb6nElrMa-7b8kM3IpfW-23" value="&lt;div&gt;1.list&lt;/div&gt;&lt;div&gt;2.list&lt;br&gt;&lt;/div&gt;" style="text;html=1;strokeColor=none;fillColor=none;align=center;verticalAlign=middle;whiteSpace=wrap;rounded=0;" vertex="1" parent="1">
          <mxGeometry x="90" y="140" width="40" height="20" as="geometry" />
        </mxCell>
        <mxCell id="Wb6nElrMa-7b8kM3IpfW-24" value="" style="rounded=0;whiteSpace=wrap;html=1;" vertex="1" parent="1">
          <mxGeometry x="210" y="60" width="110" height="120" as="geometry" />
        </mxCell>
        <mxCell id="Wb6nElrMa-7b8kM3IpfW-25" value="" style="rounded=0;whiteSpace=wrap;html=1;" vertex="1" parent="1">
          <mxGeometry x="220" y="68" width="40" height="42" as="geometry" />
        </mxCell>
        <mxCell id="Wb6nElrMa-7b8kM3IpfW-26" value="Img" style="text;html=1;strokeColor=none;fillColor=none;align=center;verticalAlign=middle;whiteSpace=wrap;rounded=0;" vertex="1" parent="1">
          <mxGeometry x="220" y="79" width="40" height="20" as="geometry" />
        </mxCell>
        <mxCell id="Wb6nElrMa-7b8kM3IpfW-27" value="Title" style="text;html=1;strokeColor=none;fillColor=none;align=center;verticalAlign=middle;whiteSpace=wrap;rounded=0;" vertex="1" parent="1">
          <mxGeometry x="270" y="70" width="40" height="20" as="geometry" />
        </mxCell>
        <mxCell id="Wb6nElrMa-7b8kM3IpfW-28" value="&lt;font style=&quot;font-size: 10px&quot;&gt;desc&lt;/font&gt;" style="text;html=1;strokeColor=none;fillColor=none;align=center;verticalAlign=middle;whiteSpace=wrap;rounded=0;" vertex="1" parent="1">
          <mxGeometry x="270" y="90" width="40" height="20" as="geometry" />
        </mxCell>
        <mxCell id="Wb6nElrMa-7b8kM3IpfW-29" value="Chapters" style="text;html=1;strokeColor=none;fillColor=none;align=center;verticalAlign=middle;whiteSpace=wrap;rounded=0;" vertex="1" parent="1">
          <mxGeometry x="220" y="120" width="40" height="20" as="geometry" />
        </mxCell>
        <mxCell id="Wb6nElrMa-7b8kM3IpfW-30" value="&lt;div&gt;1.list&lt;/div&gt;&lt;div&gt;2.list&lt;br&gt;&lt;/div&gt;" style="text;html=1;strokeColor=none;fillColor=none;align=center;verticalAlign=middle;whiteSpace=wrap;rounded=0;" vertex="1" parent="1">
          <mxGeometry x="220" y="140" width="40" height="20" as="geometry" />
        </mxCell>
        <mxCell id="Wb6nElrMa-7b8kM3IpfW-31" value="" style="rounded=0;whiteSpace=wrap;html=1;" vertex="1" parent="1">
          <mxGeometry x="340" y="60" width="110" height="120" as="geometry" />
        </mxCell>
        <mxCell id="Wb6nElrMa-7b8kM3IpfW-32" value="" style="rounded=0;whiteSpace=wrap;html=1;" vertex="1" parent="1">
          <mxGeometry x="350" y="68" width="40" height="42" as="geometry" />
        </mxCell>
        <mxCell id="Wb6nElrMa-7b8kM3IpfW-33" value="Img" style="text;html=1;strokeColor=none;fillColor=none;align=center;verticalAlign=middle;whiteSpace=wrap;rounded=0;" vertex="1" parent="1">
          <mxGeometry x="350" y="79" width="40" height="20" as="geometry" />
        </mxCell>
        <mxCell id="Wb6nElrMa-7b8kM3IpfW-34" value="Title" style="text;html=1;strokeColor=none;fillColor=none;align=center;verticalAlign=middle;whiteSpace=wrap;rounded=0;" vertex="1" parent="1">
          <mxGeometry x="400" y="70" width="40" height="20" as="geometry" />
        </mxCell>
        <mxCell id="Wb6nElrMa-7b8kM3IpfW-35" value="&lt;font style=&quot;font-size: 10px&quot;&gt;desc&lt;/font&gt;" style="text;html=1;strokeColor=none;fillColor=none;align=center;verticalAlign=middle;whiteSpace=wrap;rounded=0;" vertex="1" parent="1">
          <mxGeometry x="400" y="90" width="40" height="20" as="geometry" />
        </mxCell>
        <mxCell id="Wb6nElrMa-7b8kM3IpfW-36" value="Chapters" style="text;html=1;strokeColor=none;fillColor=none;align=center;verticalAlign=middle;whiteSpace=wrap;rounded=0;" vertex="1" parent="1">
          <mxGeometry x="350" y="120" width="40" height="20" as="geometry" />
        </mxCell>
        <mxCell id="Wb6nElrMa-7b8kM3IpfW-37" value="&lt;div&gt;1.list&lt;/div&gt;&lt;div&gt;2.list&lt;br&gt;&lt;/div&gt;" style="text;html=1;strokeColor=none;fillColor=none;align=center;verticalAlign=middle;whiteSpace=wrap;rounded=0;" vertex="1" parent="1">
          <mxGeometry x="350" y="140" width="40" height="20" as="geometry" />
        </mxCell>
        <mxCell id="Wb6nElrMa-7b8kM3IpfW-38" value="" style="rounded=0;whiteSpace=wrap;html=1;" vertex="1" parent="1">
          <mxGeometry x="80" y="200" width="110" height="120" as="geometry" />
        </mxCell>
        <mxCell id="Wb6nElrMa-7b8kM3IpfW-39" value="" style="rounded=0;whiteSpace=wrap;html=1;" vertex="1" parent="1">
          <mxGeometry x="90" y="208" width="40" height="42" as="geometry" />
        </mxCell>
        <mxCell id="Wb6nElrMa-7b8kM3IpfW-40" value="Img" style="text;html=1;strokeColor=none;fillColor=none;align=center;verticalAlign=middle;whiteSpace=wrap;rounded=0;" vertex="1" parent="1">
          <mxGeometry x="90" y="219" width="40" height="20" as="geometry" />
        </mxCell>
        <mxCell id="Wb6nElrMa-7b8kM3IpfW-41" value="Title" style="text;html=1;strokeColor=none;fillColor=none;align=center;verticalAlign=middle;whiteSpace=wrap;rounded=0;" vertex="1" parent="1">
          <mxGeometry x="140" y="210" width="40" height="20" as="geometry" />
        </mxCell>
        <mxCell id="Wb6nElrMa-7b8kM3IpfW-42" value="&lt;font style=&quot;font-size: 10px&quot;&gt;desc&lt;/font&gt;" style="text;html=1;strokeColor=none;fillColor=none;align=center;verticalAlign=middle;whiteSpace=wrap;rounded=0;" vertex="1" parent="1">
          <mxGeometry x="140" y="230" width="40" height="20" as="geometry" />
        </mxCell>
        <mxCell id="Wb6nElrMa-7b8kM3IpfW-43" value="Chapters" style="text;html=1;strokeColor=none;fillColor=none;align=center;verticalAlign=middle;whiteSpace=wrap;rounded=0;" vertex="1" parent="1">
          <mxGeometry x="90" y="260" width="40" height="20" as="geometry" />
        </mxCell>
        <mxCell id="Wb6nElrMa-7b8kM3IpfW-44" value="&lt;div&gt;1.list&lt;/div&gt;&lt;div&gt;2.list&lt;br&gt;&lt;/div&gt;" style="text;html=1;strokeColor=none;fillColor=none;align=center;verticalAlign=middle;whiteSpace=wrap;rounded=0;" vertex="1" parent="1">
          <mxGeometry x="90" y="280" width="40" height="20" as="geometry" />
        </mxCell>
        <mxCell id="Wb6nElrMa-7b8kM3IpfW-45" value="" style="rounded=0;whiteSpace=wrap;html=1;" vertex="1" parent="1">
          <mxGeometry x="210" y="200" width="110" height="120" as="geometry" />
        </mxCell>
        <mxCell id="Wb6nElrMa-7b8kM3IpfW-46" value="" style="rounded=0;whiteSpace=wrap;html=1;" vertex="1" parent="1">
          <mxGeometry x="220" y="208" width="40" height="42" as="geometry" />
        </mxCell>
        <mxCell id="Wb6nElrMa-7b8kM3IpfW-47" value="Img" style="text;html=1;strokeColor=none;fillColor=none;align=center;verticalAlign=middle;whiteSpace=wrap;rounded=0;" vertex="1" parent="1">
          <mxGeometry x="220" y="219" width="40" height="20" as="geometry" />
        </mxCell>
        <mxCell id="Wb6nElrMa-7b8kM3IpfW-48" value="Title" style="text;html=1;strokeColor=none;fillColor=none;align=center;verticalAlign=middle;whiteSpace=wrap;rounded=0;" vertex="1" parent="1">
          <mxGeometry x="270" y="210" width="40" height="20" as="geometry" />
        </mxCell>
        <mxCell id="Wb6nElrMa-7b8kM3IpfW-49" value="&lt;font style=&quot;font-size: 10px&quot;&gt;desc&lt;/font&gt;" style="text;html=1;strokeColor=none;fillColor=none;align=center;verticalAlign=middle;whiteSpace=wrap;rounded=0;" vertex="1" parent="1">
          <mxGeometry x="270" y="230" width="40" height="20" as="geometry" />
        </mxCell>
        <mxCell id="Wb6nElrMa-7b8kM3IpfW-50" value="Chapters" style="text;html=1;strokeColor=none;fillColor=none;align=center;verticalAlign=middle;whiteSpace=wrap;rounded=0;" vertex="1" parent="1">
          <mxGeometry x="220" y="260" width="40" height="20" as="geometry" />
        </mxCell>
        <mxCell id="Wb6nElrMa-7b8kM3IpfW-51" value="&lt;div&gt;1.list&lt;/div&gt;&lt;div&gt;2.list&lt;br&gt;&lt;/div&gt;" style="text;html=1;strokeColor=none;fillColor=none;align=center;verticalAlign=middle;whiteSpace=wrap;rounded=0;" vertex="1" parent="1">
          <mxGeometry x="220" y="280" width="40" height="20" as="geometry" />
        </mxCell>
        <mxCell id="Wb6nElrMa-7b8kM3IpfW-59" value="" style="rounded=0;whiteSpace=wrap;html=1;" vertex="1" parent="1">
          <mxGeometry x="340" y="200" width="110" height="120" as="geometry" />
        </mxCell>
        <mxCell id="Wb6nElrMa-7b8kM3IpfW-60" value="" style="rounded=0;whiteSpace=wrap;html=1;" vertex="1" parent="1">
          <mxGeometry x="350" y="208" width="40" height="42" as="geometry" />
        </mxCell>
        <mxCell id="Wb6nElrMa-7b8kM3IpfW-61" value="Img" style="text;html=1;strokeColor=none;fillColor=none;align=center;verticalAlign=middle;whiteSpace=wrap;rounded=0;" vertex="1" parent="1">
          <mxGeometry x="350" y="219" width="40" height="20" as="geometry" />
        </mxCell>
        <mxCell id="Wb6nElrMa-7b8kM3IpfW-62" value="Title" style="text;html=1;strokeColor=none;fillColor=none;align=center;verticalAlign=middle;whiteSpace=wrap;rounded=0;" vertex="1" parent="1">
          <mxGeometry x="400" y="210" width="40" height="20" as="geometry" />
        </mxCell>
        <mxCell id="Wb6nElrMa-7b8kM3IpfW-63" value="&lt;font style=&quot;font-size: 10px&quot;&gt;desc&lt;/font&gt;" style="text;html=1;strokeColor=none;fillColor=none;align=center;verticalAlign=middle;whiteSpace=wrap;rounded=0;" vertex="1" parent="1">
          <mxGeometry x="400" y="230" width="40" height="20" as="geometry" />
        </mxCell>
        <mxCell id="Wb6nElrMa-7b8kM3IpfW-64" value="Chapters" style="text;html=1;strokeColor=none;fillColor=none;align=center;verticalAlign=middle;whiteSpace=wrap;rounded=0;" vertex="1" parent="1">
          <mxGeometry x="350" y="260" width="40" height="20" as="geometry" />
        </mxCell>
        <mxCell id="Wb6nElrMa-7b8kM3IpfW-65" value="&lt;div&gt;1.list&lt;/div&gt;&lt;div&gt;2.list&lt;br&gt;&lt;/div&gt;" style="text;html=1;strokeColor=none;fillColor=none;align=center;verticalAlign=middle;whiteSpace=wrap;rounded=0;" vertex="1" parent="1">
          <mxGeometry x="350" y="280" width="40" height="20" as="geometry" />
        </mxCell>
        <mxCell id="Wb6nElrMa-7b8kM3IpfW-66" value="" style="rounded=0;whiteSpace=wrap;html=1;" vertex="1" parent="1">
          <mxGeometry x="80" y="340" width="110" height="120" as="geometry" />
        </mxCell>
        <mxCell id="Wb6nElrMa-7b8kM3IpfW-67" value="" style="rounded=0;whiteSpace=wrap;html=1;" vertex="1" parent="1">
          <mxGeometry x="90" y="348" width="40" height="42" as="geometry" />
        </mxCell>
        <mxCell id="Wb6nElrMa-7b8kM3IpfW-68" value="Img" style="text;html=1;strokeColor=none;fillColor=none;align=center;verticalAlign=middle;whiteSpace=wrap;rounded=0;" vertex="1" parent="1">
          <mxGeometry x="90" y="359" width="40" height="20" as="geometry" />
        </mxCell>
        <mxCell id="Wb6nElrMa-7b8kM3IpfW-69" value="Title" style="text;html=1;strokeColor=none;fillColor=none;align=center;verticalAlign=middle;whiteSpace=wrap;rounded=0;" vertex="1" parent="1">
          <mxGeometry x="140" y="350" width="40" height="20" as="geometry" />
        </mxCell>
        <mxCell id="Wb6nElrMa-7b8kM3IpfW-70" value="&lt;font style=&quot;font-size: 10px&quot;&gt;desc&lt;/font&gt;" style="text;html=1;strokeColor=none;fillColor=none;align=center;verticalAlign=middle;whiteSpace=wrap;rounded=0;" vertex="1" parent="1">
          <mxGeometry x="140" y="370" width="40" height="20" as="geometry" />
        </mxCell>
        <mxCell id="Wb6nElrMa-7b8kM3IpfW-71" value="Chapters" style="text;html=1;strokeColor=none;fillColor=none;align=center;verticalAlign=middle;whiteSpace=wrap;rounded=0;" vertex="1" parent="1">
          <mxGeometry x="90" y="400" width="40" height="20" as="geometry" />
        </mxCell>
        <mxCell id="Wb6nElrMa-7b8kM3IpfW-72" value="&lt;div&gt;1.list&lt;/div&gt;&lt;div&gt;2.list&lt;br&gt;&lt;/div&gt;" style="text;html=1;strokeColor=none;fillColor=none;align=center;verticalAlign=middle;whiteSpace=wrap;rounded=0;" vertex="1" parent="1">
          <mxGeometry x="90" y="420" width="40" height="20" as="geometry" />
        </mxCell>
        <mxCell id="Wb6nElrMa-7b8kM3IpfW-73" value="" style="rounded=0;whiteSpace=wrap;html=1;" vertex="1" parent="1">
          <mxGeometry x="210" y="340" width="110" height="120" as="geometry" />
        </mxCell>
        <mxCell id="Wb6nElrMa-7b8kM3IpfW-74" value="" style="rounded=0;whiteSpace=wrap;html=1;" vertex="1" parent="1">
          <mxGeometry x="220" y="348" width="40" height="42" as="geometry" />
        </mxCell>
        <mxCell id="Wb6nElrMa-7b8kM3IpfW-75" value="Img" style="text;html=1;strokeColor=none;fillColor=none;align=center;verticalAlign=middle;whiteSpace=wrap;rounded=0;" vertex="1" parent="1">
          <mxGeometry x="220" y="359" width="40" height="20" as="geometry" />
        </mxCell>
        <mxCell id="Wb6nElrMa-7b8kM3IpfW-76" value="Title" style="text;html=1;strokeColor=none;fillColor=none;align=center;verticalAlign=middle;whiteSpace=wrap;rounded=0;" vertex="1" parent="1">
          <mxGeometry x="270" y="350" width="40" height="20" as="geometry" />
        </mxCell>
        <mxCell id="Wb6nElrMa-7b8kM3IpfW-77" value="&lt;font style=&quot;font-size: 10px&quot;&gt;desc&lt;/font&gt;" style="text;html=1;strokeColor=none;fillColor=none;align=center;verticalAlign=middle;whiteSpace=wrap;rounded=0;" vertex="1" parent="1">
          <mxGeometry x="270" y="370" width="40" height="20" as="geometry" />
        </mxCell>
        <mxCell id="Wb6nElrMa-7b8kM3IpfW-78" value="Chapters" style="text;html=1;strokeColor=none;fillColor=none;align=center;verticalAlign=middle;whiteSpace=wrap;rounded=0;" vertex="1" parent="1">
          <mxGeometry x="220" y="400" width="40" height="20" as="geometry" />
        </mxCell>
        <mxCell id="Wb6nElrMa-7b8kM3IpfW-79" value="&lt;div&gt;1.list&lt;/div&gt;&lt;div&gt;2.list&lt;br&gt;&lt;/div&gt;" style="text;html=1;strokeColor=none;fillColor=none;align=center;verticalAlign=middle;whiteSpace=wrap;rounded=0;" vertex="1" parent="1">
          <mxGeometry x="220" y="420" width="40" height="20" as="geometry" />
        </mxCell>
        <mxCell id="Wb6nElrMa-7b8kM3IpfW-80" value="" style="rounded=0;whiteSpace=wrap;html=1;" vertex="1" parent="1">
          <mxGeometry x="340" y="340" width="110" height="120" as="geometry" />
        </mxCell>
        <mxCell id="Wb6nElrMa-7b8kM3IpfW-81" value="" style="rounded=0;whiteSpace=wrap;html=1;" vertex="1" parent="1">
          <mxGeometry x="350" y="348" width="40" height="42" as="geometry" />
        </mxCell>
        <mxCell id="Wb6nElrMa-7b8kM3IpfW-82" value="Img" style="text;html=1;strokeColor=none;fillColor=none;align=center;verticalAlign=middle;whiteSpace=wrap;rounded=0;" vertex="1" parent="1">
          <mxGeometry x="350" y="359" width="40" height="20" as="geometry" />
        </mxCell>
        <mxCell id="Wb6nElrMa-7b8kM3IpfW-83" value="Title" style="text;html=1;strokeColor=none;fillColor=none;align=center;verticalAlign=middle;whiteSpace=wrap;rounded=0;" vertex="1" parent="1">
          <mxGeometry x="400" y="350" width="40" height="20" as="geometry" />
        </mxCell>
        <mxCell id="Wb6nElrMa-7b8kM3IpfW-84" value="&lt;font style=&quot;font-size: 10px&quot;&gt;desc&lt;/font&gt;" style="text;html=1;strokeColor=none;fillColor=none;align=center;verticalAlign=middle;whiteSpace=wrap;rounded=0;" vertex="1" parent="1">
          <mxGeometry x="400" y="370" width="40" height="20" as="geometry" />
        </mxCell>
        <mxCell id="Wb6nElrMa-7b8kM3IpfW-85" value="Chapters" style="text;html=1;strokeColor=none;fillColor=none;align=center;verticalAlign=middle;whiteSpace=wrap;rounded=0;" vertex="1" parent="1">
          <mxGeometry x="350" y="400" width="40" height="20" as="geometry" />
        </mxCell>
        <mxCell id="Wb6nElrMa-7b8kM3IpfW-86" value="&lt;div&gt;1.list&lt;/div&gt;&lt;div&gt;2.list&lt;br&gt;&lt;/div&gt;" style="text;html=1;strokeColor=none;fillColor=none;align=center;verticalAlign=middle;whiteSpace=wrap;rounded=0;" vertex="1" parent="1">
          <mxGeometry x="350" y="420" width="40" height="20" as="geometry" />
        </mxCell>
        <mxCell id="Wb6nElrMa-7b8kM3IpfW-89" value="&#xa;State info&#xa;&#xa;State tree would be something like:&#xa;root - cards - 0 - Title&#xa;                           - coverUrl&#xa;                           - synopsis&#xa;                           - chapters                                &#xa;                           -seriesID                      &#xa;&#xa;                      - 1 - ...&#xa;&#xa;                      - ...&#xa;&#xa;&#xa;&#xa;" style="text;strokeColor=none;fillColor=none;spacing=5;spacingTop=-20;overflow=hidden;rounded=0;spacingBottom=0;whiteSpace=wrap;" vertex="1" parent="1">
          <mxGeometry x="40" y="550" width="250" height="230" as="geometry" />
        </mxCell>
      </root>
    </mxGraphModel>
  </diagram>
</mxfile>
